<svg width="252" height="252" viewBox="0 0 252 252" fill="none" xmlns="http://www.w3.org/2000/svg">
<path d="M125.5 19C184.318 19 232 66.6817 232 125.5C232 184.318 184.318 232 125.5 232C66.6817 232 19 184.318 19 125.5C19 66.6817 66.6817 19 125.5 19ZM125.5 29.6504C122.335 29.6504 122.044 34.1256 125.025 35.1885C162.13 48.4127 188.69 83.8546 188.69 125.5C188.69 167.145 162.13 202.586 125.025 215.811C122.044 216.873 122.335 221.351 125.5 221.351C178.436 221.35 221.35 178.436 221.351 125.5C221.35 72.5638 178.436 29.6506 125.5 29.6504ZM97.4551 162.42C90.2009 162.42 84.3205 168.301 84.3203 175.555C84.3203 182.809 90.2008 188.69 97.4551 188.69C104.709 188.69 110.59 182.809 110.59 175.555C110.59 168.301 104.709 162.42 97.4551 162.42ZM148.93 102.07C138.343 102.07 129.76 110.653 129.76 121.24C129.76 131.827 138.343 140.41 148.93 140.41C159.517 140.41 168.099 131.827 168.1 121.24C168.1 110.653 159.517 102.07 148.93 102.07ZM74.7354 75.0898C61.9914 75.0898 51.6602 85.4211 51.6602 98.165C51.6602 110.909 61.9914 121.24 74.7354 121.24C87.4791 121.24 97.8096 110.909 97.8096 98.165C97.8096 85.4212 87.4792 75.09 74.7354 75.0898Z" fill="#D9D9D9"/>
</svg>
