<svg width="277" height="222" viewBox="0 0 277 222" fill="none" xmlns="http://www.w3.org/2000/svg">
<path d="M138.5 0C202.289 0 254 51.7111 254 115.5C254 142.043 245.045 166.495 229.993 186H47.0068C31.9548 166.495 23 142.043 23 115.5C23 51.7111 74.7111 0 138.5 0Z" fill="#9D9D9D"/>
<path d="M111.318 3.21777C167.136 11.3608 210 59.4237 210 117.5C210 143.144 201.641 166.835 187.501 186H47.0088C31.9559 166.495 23 142.044 23 115.5C23 61.0737 60.6456 15.441 111.318 3.21777Z" fill="#D9D9D9"/>
<circle cx="91.5" cy="78.5" r="27.5" fill="#9A9A9A"/>
<circle cx="167" cy="113" r="20" fill="#9A9A9A"/>
<circle cx="103.5" cy="159.5" r="12.5" fill="#9A9A9A"/>
<rect y="186" width="277" height="10" rx="5" fill="#D9D9D9"/>
<rect x="28" y="210" width="221" height="12" rx="6" fill="#D9D9D9"/>
</svg>
